<?xml version="1.0" encoding="UTF-8"?>
<svg id="Layer_2" data-name="Layer 2" xmlns="http://www.w3.org/2000/svg" viewBox="0 0 718.88 422.92">
  <defs>
    <style>
      .cls-1 {
        fill: #231f20;
      }

      .cls-2 {
        fill: #70c493;
      }

      .cls-3 {
        fill: #583f60;
      }

      .cls-4 {
        fill: #8a616e;
        opacity: .52;
      }
    </style>
  </defs>
  <g id="Layer_1-2" data-name="Layer 1">
    <g>
      <path class="cls-2" d="m553.41,219.34l87.41-54.65v-1.32l-87.41-54.65v-43.94l127.37,82.53v33.44l-127.37,82.53v-43.94Z"/>
      <g>
        <path class="cls-3" d="m16.94,132.51h22.59c19.2,0,29.93,7.34,29.93,22.59,0,9.88-5.51,17.51-16.52,20.33v.56c13.83,1.98,22.45,9.6,22.45,22.59,0,17.79-12.42,27.11-34.16,27.11h-24.28v-93.18Zm19.76,41.51c20.33,0,28.24-6.49,28.24-18.92,0-13.27-8.75-18.63-27.39-18.63h-16.09v37.55h15.25Zm2.82,47.72c20.05,0,31.34-7.06,31.34-22.87,0-14.12-11.29-20.89-31.34-20.89h-18.07v43.76h18.07Z"/>
        <path class="cls-3" d="m99.86,220.08h23.94v-81.82h-23.94v-5.6h54.39v5.6h-23.94v81.82h23.94v5.6h-54.39v-5.6Z"/>
        <path class="cls-3" d="m205.82,143.09h-30.63v-10.02h73.13v10.02h-30.63v82.59h-11.86v-82.59Z"/>
        <path class="cls-3" d="m264.7,133.23h14.29v37.84h34.92v-37.84h14.29v92.45h-14.29v-42.16h-34.92v42.16h-14.29v-92.45Z"/>
        <path class="cls-3" d="m348.58,199.29v-42.95h16.33v40.82c0,11.03,3.48,16.21,12.96,16.21,6.51,0,11.21-2.74,17.38-10.23v-46.8h16.33v69.34h-13.42l-1.25-11.02h-.56c-6.55,7.58-14.24,12.71-24.57,12.71-16.08,0-23.2-10.22-23.2-28.08Z"/>
        <path class="cls-3" d="m449.88,218.06h-.47l-1.44,7.62h-12.84v-99.69h16.33v25.73l-.67,12.13h.48c5.69-5.68,13.62-9.2,21.04-9.2,17.98,0,28.36,13.85,28.36,35.18,0,23.8-14.68,37.54-30.61,37.54-6.62,0-14.14-3.37-20.18-9.32Zm34.07-27.98c0-13.81-4.87-21.92-16.08-21.92-5.24,0-10.8,2.48-16.42,8.3v31.16c5.11,4.6,10.91,6.25,15.23,6.25,9.68,0,17.27-8.09,17.27-23.79Z"/>
      </g>
      <rect class="cls-4" x="505.66" y="117.2" width="55.88" height="120.21"/>
      <path class="cls-1" d="m14.11,134.87h-7.46v-4.4h7.46v-7.8h4.57v7.8h7.46v4.4h-7.46v7.8h-4.57v-7.8Z"/>
    </g>
  </g>
</svg>
