<svg width="188" height="66" viewBox="0 0 188 66" fill="none" xmlns="http://www.w3.org/2000/svg">
<path d="M9.51702 58V28.9091H18.963C20.7244 28.9091 22.2111 29.2216 23.4233 29.8466C24.6354 30.4716 25.5539 31.3475 26.1789 32.4744C26.8134 33.6013 27.1307 34.9129 27.1307 36.4091C27.1307 37.5833 26.9413 38.625 26.5625 39.5341C26.1837 40.4432 25.6534 41.196 24.9716 41.7926C24.2992 42.3797 23.5085 42.7869 22.5994 43.0142V43.1847C23.6032 43.2604 24.536 43.6108 25.3977 44.2358C26.2594 44.8513 26.9507 45.6894 27.4716 46.75C28.0019 47.8106 28.267 49.0464 28.267 50.4574C28.267 51.9441 27.945 53.2557 27.3011 54.392C26.6666 55.5189 25.7149 56.4044 24.446 57.0483C23.1771 57.6828 21.6051 58 19.7301 58H9.51702ZM11.2926 56.3523H19.7301C21.9176 56.3523 23.5985 55.803 24.7727 54.7045C25.9564 53.6061 26.5483 52.1903 26.5483 50.4574C26.5483 49.2358 26.2594 48.142 25.6818 47.1761C25.1136 46.2102 24.3229 45.4479 23.3096 44.8892C22.2964 44.321 21.1221 44.0369 19.7869 44.0369H11.2926V56.3523ZM11.2926 42.4176H19.5738C20.8144 42.4176 21.8655 42.1477 22.7272 41.608C23.5985 41.0682 24.2613 40.3437 24.7159 39.4347C25.1799 38.5256 25.4119 37.517 25.4119 36.4091C25.4119 34.6098 24.8532 33.1847 23.7358 32.1335C22.6183 31.0824 21.0274 30.5568 18.963 30.5568H11.2926V42.4176ZM37.0348 28.9091V58H35.2592V28.9091H37.0348ZM43.5227 30.5568V28.9091H63.9062V30.5568H54.6022V58H52.8267V30.5568H43.5227ZM69.3679 58V28.9091H73.7571V41.5511H88.2599V28.9091H92.6633V58H88.2599V45.3153H73.7571V58H69.3679ZM112.535 48.9517V36.1818H116.797V58H112.621V54.2216H112.393C111.892 55.3864 111.087 56.357 109.979 57.1335C108.88 57.9006 107.512 58.2841 105.874 58.2841C104.472 58.2841 103.232 57.9763 102.152 57.3608C101.082 56.7358 100.239 55.8125 99.6235 54.5909C99.0175 53.3693 98.7145 51.8589 98.7145 50.0597V36.1818H102.962V49.5483C102.962 51.035 103.374 52.2187 104.197 53.0994C105.021 53.9801 106.091 54.4205 107.408 54.4205C108.203 54.4205 108.994 54.2216 109.78 53.8239C110.575 53.4261 111.233 52.8248 111.754 52.0199C112.285 51.215 112.545 50.1922 112.535 48.9517ZM122.844 58V28.9091H127.092V39.7188H127.347C127.593 39.2642 127.949 38.7386 128.413 38.142C128.877 37.5455 129.521 37.0246 130.344 36.5795C131.168 36.125 132.257 35.8977 133.611 35.8977C135.373 35.8977 136.945 36.3428 138.327 37.233C139.71 38.1231 140.794 39.4062 141.58 41.0824C142.376 42.7585 142.773 44.7756 142.773 47.1335C142.773 49.4915 142.38 51.5133 141.594 53.1989C140.808 54.875 139.729 56.1676 138.356 57.0767C136.983 57.9763 135.415 58.4261 133.654 58.4261C132.328 58.4261 131.244 58.2036 130.401 57.7585C129.568 57.3134 128.915 56.7926 128.441 56.196C127.968 55.5994 127.603 55.0691 127.347 54.6051H126.992V58H122.844ZM127.006 47.0909C127.006 48.625 127.229 49.9697 127.674 51.125C128.119 52.2803 128.763 53.1847 129.606 53.8381C130.449 54.482 131.481 54.804 132.702 54.804C133.971 54.804 135.032 54.4678 135.884 53.7955C136.736 53.1136 137.38 52.1903 137.816 51.0256C138.261 49.8608 138.484 48.5492 138.484 47.0909C138.484 45.6515 138.266 44.3589 137.83 43.2131C137.404 42.0672 136.76 41.1629 135.898 40.5C135.046 39.8371 133.981 39.5057 132.702 39.5057C131.471 39.5057 130.43 39.8229 129.577 40.4574C128.735 41.0919 128.095 41.9773 127.66 43.1136C127.224 44.25 127.006 45.5758 127.006 47.0909Z" fill="#2E0780"/>
<rect x="145" y="19" width="17" height="39" fill="#7406FF"/>
<g style="mix-blend-mode:color-dodge">
<path fill-rule="evenodd" clip-rule="evenodd" d="M157 56.2446L157.044 42.1834L176.573 28.1838L157.133 14.0611L157.178 0L187.418 21.9695V34.4383L157 56.2446Z" fill="#ACFFDC"/>
</g>
<rect y="27" width="3" height="11" transform="rotate(-90 0 27)" fill="black"/>
<rect x="4" y="20" width="3" height="11" fill="black"/>
</svg>
